{
    "accessors": {
        "accessor_72": {
            "bufferView": "bufferView_89",
            "byteOffset": 0,
            "byteStride": 0,
            "componentType": 5123,
            "count": 12,
            "type": "SCALAR"
        },
        "accessor_75": {
            "bufferView": "bufferView_89",
            "byteOffset": 24,
            "byteStride": 0,
            "componentType": 5123,
            "count": 12,
            "type": "SCALAR"
        },
        "accessor_78": {
            "bufferView": "bufferView_89",
            "byteOffset": 48,
            "byteStride": 0,
            "componentType": 5123,
            "count": 72,
            "type": "SCALAR"
        },
        "accessor_81": {
            "bufferView": "bufferView_89",
            "byteOffset": 192,
            "byteStride": 0,
            "componentType": 5123,
            "count": 12,
            "type": "SCALAR"
        },
        "accessor_83": {
            "bufferView": "bufferView_90",
            "byteOffset": 0,
            "byteStride": 12,
            "componentType": 5126,
            "count": 92,
            "max": [
                6,
                25.5331,
                11.3
            ],
            "min": [
                -6,
                -15,
                0
            ],
            "type": "VEC3"
        },
        "accessor_85": {
            "bufferView": "bufferView_90",
            "byteOffset": 1104,
            "byteStride": 12,
            "componentType": 5126,
            "count": 92,
            "max": [
                1,
                1,
                1
            ],
            "min": [
                -1,
                -1,
                -1
            ],
            "type": "VEC3"
        },
        "accessor_87": {
            "bufferView": "bufferView_90",
            "byteOffset": 2208,
            "byteStride": 8,
            "componentType": 5126,
            "count": 92,
            "max": [
                10.6333,
                3.12501
            ],
            "min": [
                -9.63327,
                -2.87501
            ],
            "type": "VEC2"
        }
    },
    "animations": {},
    "asset": {
        "generator": "collada2gltf@cf6371beb0bdc18ba603378d5e40c966da53d385",
        "premultipliedAlpha": true,
        "profile": {
            "api": "WebGL",
            "version": "1.0.2"
        },
        "version": "1.0"
    },
    "bufferViews": {
        "bufferView_89": {
            "buffer": "\\temp\\02",
            "byteLength": 216,
            "byteOffset": 0,
            "target": 34963
        },
        "bufferView_90": {
            "buffer": "\\temp\\02",
            "byteLength": 2944,
            "byteOffset": 216,
            "target": 34962
        }
    },
    "buffers": {
        "\\temp\\02": {
            "byteLength": 3160,
            "type": "arraybuffer",
            "uri": "data:application/octet-stream;base64,"
        }
    },
    "images": {
        "WA030_jpg": {
            "name": "WA030_jpg",
            "uri": "data:image/jpeg;base64,"
        },
        "bgl_zhuan_jpg": {
            "name": "bgl_zhuan_jpg",
            "uri": "data:image/jpeg;base64,"
        },
        "shitang1_jpg": {
            "name": "shitang1_jpg",
            "uri": "data:image/jpeg;base64,"
        },
        "shitang_jpg": {
            "name": "shitang_jpg",
            "uri": "data:image/jpeg;base64,"
        }
    },
    "materials": {
        "Standard_13_zhuan": {
            "name": "Standard_13_zhuan",
            "technique": "technique0",
            "values": {
                "ambient": "texture_bgl_zhuan_jpg",
                "diffuse": "texture_bgl_zhuan_jpg",
                "emission": [
                    0,
                    0,
                    0,
                    1
                ],
                "shininess": 10,
                "specular": [
                    0,
                    0,
                    0,
                    1
                ]
            }
        },
        "Standard_14_wan": {
            "name": "Standard_14_wan",
            "technique": "technique0",
            "values": {
                "ambient": "texture_WA030_jpg",
                "diffuse": "texture_WA030_jpg",
                "emission": [
                    0,
                    0,
                    0,
                    1
                ],
                "shininess": 10,
                "specular": [
                    0,
                    0,
                    0,
                    1
                ]
            }
        },
        "Standard_3shitang": {
            "name": "Standard_3shitang",
            "technique": "technique0",
            "values": {
                "ambient": "texture_shitang_jpg",
                "diffuse": "texture_shitang_jpg",
                "emission": [
                    0,
                    0,
                    0,
                    1
                ],
                "shininess": 10,
                "specular": [
                    0,
                    0,
                    0,
                    1
                ]
            }
        },
        "Standard_4shitang2": {
            "name": "Standard_4shitang2",
            "technique": "technique0",
            "values": {
                "ambient": "texture_shitang1_jpg",
                "diffuse": "texture_shitang1_jpg",
                "emission": [
                    0,
                    0,
                    0,
                    1
                ],
                "shininess": 10,
                "specular": [
                    0,
                    0,
                    0,
                    1
                ]
            }
        }
    },
    "meshes": {
        "geom-Box17": {
            "name": "Box17",
            "primitives": [
                {
                    "attributes": {
                        "NORMAL": "accessor_85",
                        "POSITION": "accessor_83",
                        "TEXCOORD_0": "accessor_87"
                    },
                    "indices": "accessor_72",
                    "material": "Standard_13_zhuan",
                    "mode": 4
                },
                {
                    "attributes": {
                        "NORMAL": "accessor_85",
                        "POSITION": "accessor_83",
                        "TEXCOORD_0": "accessor_87"
                    },
                    "indices": "accessor_75",
                    "material": "Standard_3shitang",
                    "mode": 4
                },
                {
                    "attributes": {
                        "NORMAL": "accessor_85",
                        "POSITION": "accessor_83",
                        "TEXCOORD_0": "accessor_87"
                    },
                    "indices": "accessor_78",
                    "material": "Standard_4shitang2",
                    "mode": 4
                },
                {
                    "attributes": {
                        "NORMAL": "accessor_85",
                        "POSITION": "accessor_83",
                        "TEXCOORD_0": "accessor_87"
                    },
                    "indices": "accessor_81",
                    "material": "Standard_14_wan",
                    "mode": 4
                }
            ]
        }
    },
    "nodes": {
        "node-Box17": {
            "children": [
                "node_3"
            ],
            "matrix": [
                1,
                0,
                0,
                0,
                0,
                1,
                0,
                0,
                0,
                0,
                1,
                0,
                1237.39,
                -891.25,
                -291.868,
                1
            ],
            "name": "Box17"
        },
        "node-ZhuShuQiaoDuan": {
            "children": [
                "node-Box17"
            ],
            "matrix": [
                1,
                0,
                0,
                0,
                0,
                1,
                0,
                0,
                0,
                0,
                1,
                0,
                14.9858,
                0,
                0,
                1
            ],
            "name": "ZhuShuQiaoDuan"
        },
        "node_0": {
            "children": [],
            "matrix": [
                1,
                0,
                0,
                0,
                0,
                1,
                0,
                0,
                0,
                0,
                1,
                0,
                0,
                0,
                0,
                1
            ],
            "name": "EnvironmentAmbientLight"
        },
        "node_3": {
            "children": [],
            "matrix": [
                1,
                0,
                0,
                0,
                0,
                1,
                0,
                0,
                0,
                0,
                1,
                0,
                0,
                -5.25,
                -5.64999,
                1
            ],
            "meshes": [
                "geom-Box17"
            ],
            "name": ""
        },
        "node_4": {
            "children": [
                "node_0",
                "node-ZhuShuQiaoDuan"
            ],
            "matrix": [
                1,
                0,
                0,
                0,
                0,
                0,
                -1,
                0,
                0,
                1,
                0,
                0,
                0,
                0,
                0,
                1
            ],
            "name": "Y_UP_Transform"
        }
    },
    "programs": {
        "program_0": {
            "attributes": [
                "a_normal",
                "a_position",
                "a_texcoord0"
            ],
            "fragmentShader": "\\temp\\020FS",
            "vertexShader": "\\temp\\020VS"
        }
    },
    "samplers": {
        "sampler_0": {
            "magFilter": 9729,
            "minFilter": 9729,
            "wrapS": 10497,
            "wrapT": 10497
        }
    },
    "scene": "defaultScene",
    "scenes": {
        "defaultScene": {
            "nodes": [
                "node_4"
            ]
        }
    },
    "shaders": {
        "\\temp\\020FS": {
            "type": 35632,
            "uri": "data:text/plain;base64,"
        },
        "\\temp\\020VS": {
            "type": 35633,
            "uri": "data:text/plain;base64,"
        }
    },
    "skins": {},
    "techniques": {
        "technique0": {
            "attributes": {
                "a_normal": "normal",
                "a_position": "position",
                "a_texcoord0": "texcoord0"
            },
            "parameters": {
                "ambient": {
                    "type": 35678
                },
                "diffuse": {
                    "type": 35678
                },
                "emission": {
                    "type": 35666
                },
                "modelViewMatrix": {
                    "semantic": "MODELVIEW",
                    "type": 35676
                },
                "normal": {
                    "semantic": "NORMAL",
                    "type": 35665
                },
                "normalMatrix": {
                    "semantic": "MODELVIEWINVERSETRANSPOSE",
                    "type": 35675
                },
                "position": {
                    "semantic": "POSITION",
                    "type": 35665
                },
                "projectionMatrix": {
                    "semantic": "PROJECTION",
                    "type": 35676
                },
                "shininess": {
                    "type": 5126
                },
                "specular": {
                    "type": 35666
                },
                "texcoord0": {
                    "semantic": "TEXCOORD_0",
                    "type": 35664
                }
            },
            "program": "program_0",
            "states": {
                "enable": [
                    2929,
                    2884
                ]
            },
            "uniforms": {
                "u_ambient": "ambient",
                "u_diffuse": "diffuse",
                "u_emission": "emission",
                "u_modelViewMatrix": "modelViewMatrix",
                "u_normalMatrix": "normalMatrix",
                "u_projectionMatrix": "projectionMatrix",
                "u_shininess": "shininess",
                "u_specular": "specular"
            }
        }
    },
    "textures": {
        "texture_WA030_jpg": {
            "format": 6408,
            "internalFormat": 6408,
            "sampler": "sampler_0",
            "source": "WA030_jpg",
            "target": 3553,
            "type": 5121
        },
        "texture_bgl_zhuan_jpg": {
            "format": 6408,
            "internalFormat": 6408,
            "sampler": "sampler_0",
            "source": "bgl_zhuan_jpg",
            "target": 3553,
            "type": 5121
        },
        "texture_shitang1_jpg": {
            "format": 6408,
            "internalFormat": 6408,
            "sampler": "sampler_0",
            "source": "shitang1_jpg",
            "target": 3553,
            "type": 5121
        },
        "texture_shitang_jpg": {
            "format": 6408,
            "internalFormat": 6408,
            "sampler": "sampler_0",
            "source": "shitang_jpg",
            "target": 3553,
            "type": 5121
        }
    }
}